<?xml version="1.0" encoding="UTF-8" standalone="no"?>
<svg
   xmlns:dc="http://purl.org/dc/elements/1.1/"
   xmlns:cc="http://creativecommons.org/ns#"
   xmlns:rdf="http://www.w3.org/1999/02/22-rdf-syntax-ns#"
   xmlns:svg="http://www.w3.org/2000/svg"
   xmlns="http://www.w3.org/2000/svg"
   xmlns:sodipodi="http://sodipodi.sourceforge.net/DTD/sodipodi-0.dtd"
   xmlns:inkscape="http://www.inkscape.org/namespaces/inkscape"
   width="801.6358mm"
   height="264.58328mm"
   viewBox="0 0 801.63581 264.58328"
   version="1.1"
   id="svg2366"
   inkscape:version="1.0.2 (1.0.2+r75+1)"
   sodipodi:docname="foxter.svg">
  <defs
     id="defs2360" />
  <sodipodi:namedview
     id="base"
     pagecolor="#ffffff"
     bordercolor="#666666"
     borderopacity="1.0"
     inkscape:pageopacity="0.0"
     inkscape:pageshadow="2"
     inkscape:zoom="0.175"
     inkscape:cx="1417.4269"
     inkscape:cy="1124.0757"
     inkscape:document-units="px"
     inkscape:current-layer="layer1"
     inkscape:document-rotation="0"
     showgrid="false"
     inkscape:window-width="1366"
     inkscape:window-height="705"
     inkscape:window-x="0"
     inkscape:window-y="798"
     inkscape:window-maximized="1" />
  <metadata
     id="metadata2363">
    <rdf:RDF>
      <cc:Work
         rdf:about="">
        <dc:format>image/svg+xml</dc:format>
        <dc:type
           rdf:resource="http://purl.org/dc/dcmitype/StillImage" />
        <dc:title />
      </cc:Work>
    </rdf:RDF>
  </metadata>
  <g
     inkscape:label="Layer 1"
     inkscape:groupmode="layer"
     id="layer1"
     transform="translate(-39.746122,-82.910585)">
    <path
       style="fill:none;fill-opacity:1;fill-rule:evenodd;stroke:#502d16;stroke-width:18.8452;stroke-linecap:round;stroke-linejoin:round;stroke-miterlimit:4;stroke-dasharray:none;stroke-opacity:1"
       id="path1710-0-1-3-3"
       transform="scale(1,-1)"
       sodipodi:type="arc"
       sodipodi:arc-type="arc"
       sodipodi:open="true"
       sodipodi:start="0"
       sodipodi:end="3.1415927"
       sodipodi:ry="87.158775"
       sodipodi:rx="91.869949"
       sodipodi:cy="-179.50833"
       sodipodi:cx="164.5952"
       d="m 256.46515,-179.50833 a 91.869949,87.158775 0 0 1 -45.93498,75.48171 91.869949,87.158775 0 0 1 -91.86995,0 91.869949,87.158775 0 0 1 -45.93497,-75.48171" />
    <path
       style="fill:#502d16;fill-opacity:1;fill-rule:evenodd;stroke:none;stroke-width:2.35564;stroke-linecap:round;stroke-linejoin:round;stroke-miterlimit:4;stroke-dasharray:none;stroke-opacity:1"
       id="path1710-0-1"
       transform="matrix(0,1,1,0,0,0)"
       sodipodi:type="arc"
       sodipodi:arc-type="arc"
       sodipodi:open="true"
       sodipodi:start="6.0213859"
       sodipodi:end="3.403392"
       sodipodi:ry="28.267717"
       sodipodi:rx="40.045933"
       sodipodi:cy="261.17654"
       sodipodi:cx="188.69531"
       d="m 227.37671,253.86032 a 40.045933,28.267717 0 0 1 -15.71199,30.47178 40.045933,28.267717 0 0 1 -45.93881,0 40.045933,28.267717 0 0 1 -15.712,-30.47178" />
    <path
       style="fill:#502d16;fill-opacity:1;fill-rule:evenodd;stroke:none;stroke-width:2.35564;stroke-linecap:round;stroke-linejoin:round;stroke-miterlimit:4;stroke-dasharray:none;stroke-opacity:1"
       id="path1710-0-1-3"
       transform="matrix(0,-1,-1,0,0,0)"
       sodipodi:type="arc"
       sodipodi:arc-type="arc"
       sodipodi:open="true"
       sodipodi:start="6.0213859"
       sodipodi:end="3.403392"
       sodipodi:ry="28.267717"
       sodipodi:rx="40.045933"
       sodipodi:cy="-68.01384"
       sodipodi:cx="-188.69531"
       d="m -150.01391,-75.330064 a 40.045933,28.267717 0 0 1 -15.712,30.471782 40.045933,28.267717 0 0 1 -45.9388,1e-6 40.045933,28.267717 0 0 1 -15.712,-30.471781" />
    <path
       style="fill:none;fill-rule:evenodd;stroke:#e97d1f;stroke-width:18.8451;stroke-linecap:butt;stroke-linejoin:miter;stroke-miterlimit:4;stroke-dasharray:none;stroke-opacity:1"
       d="m 77.436402,139.79445 v 116.0085 l 87.158798,78.97557 87.15879,-78.97557 v -116.0085 l -43.57939,31.51488 h -87.1588 z"
       id="path1063-1-8-2-9-2-9"
       sodipodi:nodetypes="cccccccc" />
    <path
       style="fill:#502d16;fill-rule:evenodd;stroke:#502d16;stroke-width:3.97815;stroke-linecap:butt;stroke-linejoin:miter;stroke-miterlimit:4;stroke-dasharray:none;stroke-opacity:1"
       d="m 146.19626,264.85893 18.39894,16.6715 18.39894,-16.6715 z"
       id="path1063-1-8-2-9-2-4-4"
       sodipodi:nodetypes="cccc" />
    <path
       style="fill:#aa9666;fill-opacity:1;fill-rule:evenodd;stroke:none;stroke-width:0.471129px;stroke-linecap:butt;stroke-linejoin:miter;stroke-opacity:1"
       d="m 176.05154,248.73602 c 0,0 8.67729,-22.7353 18.87996,-25.95024 9.60028,-3.02516 28.55478,9.82223 28.55478,9.82223 0,0 -5.46326,8.11383 -9.49626,10.62207 -5.65585,3.51754 -12.8603,5.35796 -19.24966,5.35796 -6.81581,0 -18.68882,0.14798 -18.68882,0.14798 z"
       id="path1967-9"
       sodipodi:nodetypes="cscssc" />
    <path
       style="fill:#aa9666;fill-opacity:1;fill-rule:evenodd;stroke:none;stroke-width:0.471129px;stroke-linecap:butt;stroke-linejoin:miter;stroke-opacity:1"
       d="m 153.14004,248.73602 c 0,0 -8.67735,-22.7353 -18.87997,-25.95024 -9.60033,-3.02516 -28.55482,9.82223 -28.55482,9.82223 0,0 5.46326,8.11383 9.49626,10.62207 5.65585,3.51754 12.8603,5.35796 19.24965,5.35796 6.81587,0 18.68888,0.14798 18.68888,0.14798 z"
       id="path1967-7-0"
       sodipodi:nodetypes="cscssc" />
    <text
       xml:space="preserve"
       style="font-style:normal;font-weight:normal;font-size:234.738px;line-height:1.25;font-family:sans-serif;fill:#502d16;fill-opacity:1;fill-rule:evenodd;stroke:none;stroke-width:5.86847"
       x="297.59302"
       y="344.44229"
       id="text2975"><tspan
         sodipodi:role="line"
         id="tspan2973"
         x="297.59302"
         y="344.44229"
         style="font-style:italic;font-variant:normal;font-weight:normal;font-stretch:normal;font-family:'Ubuntu Condensed';-inkscape-font-specification:'Ubuntu Condensed, Italic';fill:#502d16;fill-opacity:1;stroke-width:5.86847">foxter</tspan></text>
  </g>
</svg>
